<svg aria-hidden="true" style="position: absolute; width: 0; height: 0; overflow: hidden;" version="1.1" xmlns="http://www.w3.org/2000/svg" xmlns:xlink="http://www.w3.org/1999/xlink">
<defs>
<symbol id="icon-arrow-down" viewBox="0 0 10 32">
<path d="M4.576 31.816c0.114 0.113 0.27 0.184 0.444 0.184s0.33-0.070 0.444-0.184l3.993-3.993c0.109-0.113 0.176-0.266 0.176-0.436 0-0.347-0.281-0.627-0.627-0.627-0.169 0-0.323 0.067-0.436 0.176l0-0-3.55 3.55-3.55-3.55c-0.112-0.105-0.263-0.17-0.429-0.17-0.347 0-0.627 0.281-0.627 0.627 0 0.166 0.065 0.318 0.17 0.43l3.993 3.993zM4.392 0v31.373h1.255v-31.373h-1.255z"></path>
</symbol>
<symbol id="icon-arrow-left" viewBox="0 0 102 32">
<path d="M0.586 14.586c-0.362 0.362-0.586 0.862-0.586 1.414s0.224 1.052 0.586 1.414l12.728 12.728c0.359 0.347 0.849 0.561 1.389 0.561 1.105 0 2-0.895 2-2 0-0.54-0.214-1.030-0.562-1.39l0.001 0.001-11.314-11.314 11.314-11.314c0.335-0.357 0.541-0.838 0.541-1.368 0-1.105-0.895-2-2-2-0.53 0-1.012 0.206-1.37 0.543l0.001-0.001-12.728 12.726zM102 14h-100v4h100v-4z"></path>
</symbol>
<symbol id="icon-arrow-right" viewBox="0 0 102 32">
<path d="M101.414 17.414c0.362-0.362 0.586-0.862 0.586-1.414s-0.224-1.052-0.586-1.414l-12.728-12.728c-0.364-0.377-0.874-0.611-1.439-0.611-1.105 0-2 0.895-2 2 0 0.565 0.234 1.074 0.61 1.438l0.001 0.001 11.314 11.314-11.314 11.314c-0.347 0.359-0.561 0.849-0.561 1.389 0 1.105 0.895 2 2 2 0.54 0 1.030-0.214 1.39-0.562l-0.001 0.001 12.728-12.728zM0 18h100v-4h-100v4z"></path>
</symbol>
<symbol id="icon-arrow-up" viewBox="0 0 10 32">
<path d="M5.464 0.184c-0.114-0.114-0.27-0.184-0.444-0.184s-0.33 0.070-0.444 0.184l-3.993 3.993c-0.114 0.114-0.184 0.271-0.184 0.444 0 0.347 0.281 0.628 0.628 0.628 0.173 0 0.33-0.070 0.444-0.184l3.55-3.55 3.549 3.55c0.114 0.113 0.27 0.184 0.444 0.184 0.347 0 0.628-0.281 0.628-0.628 0-0.173-0.070-0.33-0.184-0.444l-3.993-3.993zM5.648 32.001v-31.373h-1.255v31.373h1.255z"></path>
</symbol>
<symbol id="icon-facebook" viewBox="0 0 31 32">
<path d="M25.6 1.92h-20.48c-2.121 0-3.84 1.719-3.84 3.84v20.48c0 2.121 1.719 3.84 3.84 3.84h20.48c2.121 0 3.84-1.719 3.84-3.84v-20.48c0-2.121-1.719-3.84-3.84-3.84zM25.6 4.48c0.707 0 1.28 0.573 1.28 1.28v0 20.48c0 0.707-0.573 1.28-1.28 1.28v0h-6.4v-8.96h2.657c0 0 0 0 0 0 0.562 0 1.040-0.363 1.212-0.866l0.003-0.009 0.567-1.701c0.031-0.091 0.049-0.195 0.049-0.303 0-0.53-0.43-0.96-0.96-0.96-0 0-0 0-0.001 0h-3.528v-2.56c0-0.64 0.64-1.28 1.28-1.28h2.56c0.707 0 1.28-0.573 1.28-1.28v0-0.878c0-0.004 0-0.009 0-0.014 0-0.415-0.278-0.765-0.658-0.874l-0.006-0.002c-1.677-0.443-3.176-0.443-3.176-0.443-3.2 0-5.12 2.211-5.12 4.131v3.2h-2.56c-0.707 0-1.28 0.573-1.28 1.28v0 1.28c0 0.707 0.573 1.28 1.28 1.28v0h2.56v8.96h-10.24c-0.707 0-1.28-0.573-1.28-1.28v0-20.48c0-0.707 0.573-1.28 1.28-1.28v0h20.48z"></path>
<symbol id="icon-youtube" viewBox="0 0 31 32">
<path d="M12.155 9.769c-0.182-0.106-0.401-0.169-0.635-0.169-0.707 0-1.28 0.573-1.28 1.28v10.24c0 0.707 0.573 1.28 1.28 1.28 0.234 0 0.453-0.063 0.641-0.172l-0.006 0.003 8.96-5.12c0.388-0.225 0.644-0.638 0.644-1.111s-0.257-0.886-0.638-1.108l-0.006-0.003-8.96-5.12zM17.9 16l-5.1 2.915v-5.829l5.1 2.915z"></path>
<path d="M0 16c0 4.799 0 7.2 1.222 8.883l0.012 0.018c0.388 0.529 0.856 0.996 1.403 1.397 1.682 1.222 4.082 1.222 8.882 1.222h7.68c4.799 0 7.2 0 8.882-1.222l0.018-0.013c0.529-0.388 0.997-0.856 1.398-1.403 1.222-1.682 1.222-4.082 1.222-8.882 0-4.799 0-7.2-1.222-8.882l-0.013-0.018c-0.388-0.529-0.856-0.997-1.403-1.398-1.682-1.222-4.082-1.222-8.882-1.222h-7.68c-4.799 0-7.2 0-8.883 1.222l-0.018 0.013c-0.529 0.388-0.996 0.856-1.397 1.403-1.222 1.682-1.222 4.082-1.222 8.882zM11.52 7.040h7.68c2.458 0 4.093 0.004 5.334 0.138 1.193 0.128 1.711 0.353 2.043 0.595 0.326 0.237 0.613 0.524 0.85 0.85 0.242 0.333 0.466 0.85 0.595 2.043 0.134 1.24 0.138 2.877 0.138 5.334 0 2.458-0.004 4.093-0.138 5.334-0.128 1.193-0.353 1.711-0.595 2.043-0.237 0.326-0.524 0.613-0.85 0.85-0.332 0.242-0.85 0.466-2.043 0.595-1.24 0.134-2.877 0.138-5.334 0.138h-7.68c-2.458 0-4.093-0.004-5.334-0.138-1.193-0.128-1.711-0.353-2.043-0.595-0.329-0.241-0.609-0.521-0.842-0.839l-0.008-0.011c-0.242-0.332-0.466-0.85-0.595-2.043-0.134-1.24-0.138-2.876-0.138-5.334s0.004-4.093 0.138-5.334c0.128-1.193 0.353-1.711 0.595-2.043 0.241-0.329 0.521-0.609 0.839-0.842l0.011-0.008c0.332-0.242 0.85-0.466 2.043-0.595 1.24-0.134 2.876-0.138 5.334-0.138z"></path>
</symbol>
<symbol id="icon-twitter" viewBox="0 0 31 32">
<path d="M25.322 5.655c0.445-0.105 0.756-0.209 1.011-0.319 0.358-0.154 0.653-0.335 1.121-0.645 0.198-0.133 0.443-0.212 0.705-0.212 0.707 0 1.28 0.573 1.28 1.28 0 0 0 0 0 0.001v-0c0 1.384-0.172 2.518-0.571 3.516-0.343 0.828-0.805 1.537-1.376 2.145l0.003-0.004c-0.238 4.305-1.485 7.685-3.389 10.246-1.975 2.655-4.602 4.355-7.372 5.307-2.761 0.948-5.678 1.161-8.292 0.84-2.597-0.32-4.997-1.179-6.669-2.481-0.301-0.236-0.493-0.601-0.493-1.010 0-0.707 0.573-1.28 1.28-1.28 0.063 0 0.126 0.005 0.187 0.014l-0.007-0.001c1.645 0.236 3.229-0.14 4.532-0.675-0.256-0.14-0.498-0.291-0.723-0.445-1.187-0.822-2.145-1.938-2.575-2.801-0.085-0.167-0.135-0.364-0.135-0.573 0-0.417 0.2-0.788 0.508-1.021l0.003-0.002c-1.733-1.43-2.432-3.409-2.432-4.735 0-0.58 0.386-1.069 0.915-1.226l0.009-0.002c-0.109-0.304-0.215-0.685-0.296-1.075l-0.011-0.061c-0.34-1.646-0.31-3.506 0.060-4.984 0.143-0.563 0.645-0.972 1.242-0.972 0.472 0 0.884 0.255 1.106 0.635l0.003 0.006c1.38 2.391 3.923 3.853 6.291 4.718 1.114 0.407 2.144 0.666 2.917 0.826 0.166-1.562 0.602-2.851 1.272-3.875 0.789-1.218 1.988-2.112 3.397-2.495l0.041-0.010c2.282-0.614 4.813 0.086 6.455 1.371zM13.757 13.194c-1.322-0.268-2.46-0.596-3.559-1.005l0.162 0.053c-1.737-0.635-3.754-1.626-5.444-3.159 0.029 0.282 0.073 0.563 0.128 0.835 0.284 1.371 0.81 2.139 1.288 2.378 0.422 0.215 0.707 0.646 0.707 1.144 0 0.159-0.029 0.312-0.082 0.453l0.003-0.009c-0.306 0.829-1.112 0.897-1.844 0.714 0.589 0.883 1.649 1.765 3.415 2.060 0.611 0.104 1.070 0.63 1.070 1.263 0 0.618-0.438 1.134-1.021 1.254l-0.008 0.001-1.114 0.223c0.17 0.148 0.355 0.294 0.55 0.43 0.893 0.617 1.788 0.883 2.563 0.69 0.093-0.024 0.199-0.038 0.308-0.038 0.707 0 1.28 0.573 1.28 1.28 0 0.394-0.178 0.746-0.457 0.981l-0.002 0.002c-0.824 0.686-1.787 1.236-2.752 1.693-0.452 0.215-0.959 0.426-1.508 0.613 0.422 0.090 0.863 0.164 1.317 0.22 2.266 0.279 4.788 0.090 7.148-0.721 2.35-0.806 4.524-2.227 6.149-4.412 1.623-2.182 2.756-5.203 2.908-9.304 0.013-0.336 0.153-0.637 0.374-0.858v0c0.576-0.576 1.051-1.235 1.285-2.020-0.41 0.128-0.87 0.238-1.421 0.343-0.072 0.014-0.155 0.023-0.24 0.023-0.353 0-0.673-0.143-0.905-0.375v0c-0.978-0.979-2.913-1.623-4.522-1.19-0.83 0.222-1.515 0.736-1.953 1.423l-0.008 0.013c-0.529 0.806-0.932 2.062-0.932 3.968-0 0.376-0.163 0.715-0.421 0.949l-0.001 0.001c-0.637 0.576-1.71 0.236-2.459 0.086z"></path>
</symbol>
</symbol>
<symbol id="icon-favorite" viewBox="0 0 32 32">
<path d="M4.652 8.005c-0.968 1.659-1.287 3.96-0.692 6.339 0.213 0.855 0.836 1.955 1.821 3.221 0.967 1.241 2.2 2.54 3.507 3.785 2.592 2.469 5.38 4.647 6.712 5.655 1.333-1.008 4.12-3.187 6.712-5.655 1.307-1.245 2.54-2.544 3.507-3.785 0.987-1.267 1.607-2.367 1.821-3.221 0.595-2.379 0.276-4.68-0.692-6.339-0.944-1.619-2.52-2.672-4.68-2.672-1.88 0-3.205 1.389-4.143 3.263-0.449 0.9-0.755 1.813-0.949 2.511-0.096 0.347-0.163 0.632-0.204 0.829-0.149 0.696-0.953 0.731-1.372 0.731s-1.224-0.041-1.371-0.731c-0.081-0.377-0.151-0.656-0.23-0.931l0.025 0.102c-0.268-0.968-0.591-1.801-0.987-2.593l0.037 0.082c-0.937-1.873-2.261-3.263-4.141-3.263-2.16 0-3.737 1.053-4.681 2.672zM16 7.693c0.045-0.096 0.093-0.193 0.141-0.289 1.063-2.127 4.405-6.071 7.859-6.071 3.173 0 4.263 2.947 5.652 5.328 1.365 2.341 1.713 5.373 0.975 8.328-0.349 1.4-1.245 2.855-2.304 4.213-1.077 1.384-2.413 2.783-3.771 4.079-2.72 2.591-5.624 4.855-6.977 5.876-0.933 0.707-2.215 0.707-3.149 0-1.353-1.021-4.257-3.285-6.976-5.876-1.36-1.296-2.695-2.693-3.772-4.077-1.057-1.36-1.955-2.813-2.304-4.213-0.739-2.956-0.391-5.987 0.975-8.329 1.389-2.381 3.147-5.328 6.319-5.328 3.453 0 6.129 3.944 7.193 6.071 0.048 0.096 0.095 0.193 0.14 0.289z"></path>
</symbol>
<symbol id="icon-instagram" viewBox="0 0 31 32">
<path d="M15.36 23.68v0c-4.242 0-7.68-3.438-7.68-7.68s3.438-7.68 7.68-7.68v0c4.242 0 7.68 3.438 7.68 7.68s-3.438 7.68-7.68 7.68zM15.36 21.12c2.828 0 5.12-2.292 5.12-5.12s-2.292-5.12-5.12-5.12v0c-2.828 0-5.12 2.292-5.12 5.12s2.292 5.12 5.12 5.12v0z"></path>
<path d="M23.040 7.040c-0.707 0-1.28 0.573-1.28 1.28s0.573 1.28 1.28 1.28v0c0.707 0 1.28-0.573 1.28-1.28s-0.573-1.28-1.28-1.28v0z"></path>
<path d="M2.117 6.113l0.020-0.043c0.73-1.409 1.884-2.563 3.336-3.313 1.644-0.837 3.794-0.837 8.095-0.837h3.584c4.301 0 6.451 0 8.095 0.837l0.043 0.020c1.409 0.73 2.563 1.884 3.313 3.336 0.837 1.644 0.837 3.794 0.837 8.095v3.584c0 4.301 0 6.451-0.837 8.095l-0.020 0.043c-0.73 1.409-1.884 2.563-3.336 3.313-1.644 0.837-3.794 0.837-8.095 0.837h-3.584c-4.301 0-6.451 0-8.095-0.837l-0.043-0.020c-1.409-0.73-2.563-1.884-3.313-3.336-0.837-1.644-0.837-3.794-0.837-8.095v-3.584c0-4.301 0-6.451 0.837-8.095zM17.152 4.48h-3.584c-2.193 0-3.684 0.003-4.836 0.096-1.123 0.092-1.696 0.259-2.097 0.462-0.968 0.5-1.737 1.27-2.224 2.209l-0.013 0.029c-0.205 0.401-0.371 0.974-0.461 2.097-0.096 1.152-0.097 2.643-0.097 4.836v3.584c0 2.193 0.003 3.684 0.096 4.836 0.092 1.123 0.259 1.696 0.462 2.097 0.5 0.968 1.27 1.737 2.209 2.224l0.029 0.013c0.401 0.205 0.974 0.371 2.097 0.461 1.152 0.095 2.643 0.097 4.836 0.097h3.584c2.193 0 3.684-0.003 4.836-0.096 1.123-0.092 1.696-0.259 2.097-0.462 0.968-0.5 1.737-1.27 2.224-2.209l0.013-0.029c0.205-0.401 0.371-0.974 0.461-2.097 0.095-1.152 0.097-2.643 0.097-4.836v-3.584c0-2.193-0.003-3.684-0.096-4.836-0.092-1.123-0.259-1.696-0.462-2.097-0.5-0.968-1.27-1.737-2.209-2.224l-0.029-0.013c-0.401-0.205-0.974-0.371-2.097-0.461-1.152-0.095-2.643-0.097-4.836-0.097z"></path>
</symbol>
<symbol id="icon-LOGO" viewBox="0 0 77 32">
<path d="M3.118 0.76l-1.454-0.079-0.6-0.127-0.12-0.237c0-0.222 0.15-0.317 0.45-0.317h15.036c7.045 0 11.992 2.262 14.87 6.803 1.649 2.626 2.473 5.742 2.473 9.349 0 1.883-0.269 3.702-0.824 5.459-0.63 1.851-1.499 3.481-2.623 4.936-1.229 1.534-2.728 2.721-4.452 3.591-1.843 0.886-3.912 1.345-6.236 1.345h-19.173c-0.315 0-0.465-0.111-0.465-0.3 0-0.205 0.225-0.316 0.644-0.316l3.673-0.237c0.57-0.080 0.974-0.254 1.169-0.491l0.375-0.554c0.134-0.379 0.21-0.948 0.225-1.724v-25.092c0-0.98-0.525-1.582-1.544-1.82l-1.425-0.189zM11.213 1.187l-0.105 0.634v27.859c0 0.316 0.060 0.538 0.179 0.617l0.6 0.095h1.978l4.588-0.174c1.229-0.142 2.278-0.348 3.103-0.633 0.873-0.342 1.626-0.79 2.293-1.339l-0.014 0.011c0.6-0.522 1.214-1.266 1.889-2.215 1.124-1.55 1.933-3.528 2.428-5.948 0.3-1.581 0.45-3.117 0.45-4.588 0-1.297-0.18-2.69-0.555-4.193-0.525-2.168-1.32-4.066-2.444-5.68-2.174-3.132-5.741-4.683-10.673-4.683h-3.043c-0.344-0.032-0.57 0.047-0.674 0.237zM36.726 31.245c-0.030-0.19 0.12-0.269 0.45-0.269l1.050-0.032c0.57-0.079 0.914-0.284 1.049-0.601l0.195-1.139v-9.192c0-0.348-0.12-0.617-0.344-0.775l-0.78-0.080-1.050 0.301-0.57-0.032c-0.075-0.189 0.15-0.364 0.675-0.522 1.244-0.348 2.339-0.791 3.268-1.345 0.322-0.205 0.7-0.411 1.093-0.592l0.061-0.025 0.45-0.047c0.15 0.031 0.225 0.348 0.225 0.917v11.581c0 0.553 0.12 0.949 0.345 1.186 0.269 0.285 0.899 0.427 1.873 0.427 0.345 0 0.525 0.080 0.555 0.253 0 0.143-0.105 0.19-0.285 0.19h-7.99c-0.179 0.001-0.269-0.079-0.269-0.205zM72.103 19.855c-0.734 0.807-1.229 1.756-1.499 2.895v6.724c0 0.601 0.195 1.028 0.6 1.297l0.915 0.173 0.959 0.111c0.225 0.032 0.316 0.080 0.316 0.206l-0.045 0.111-0.255 0.080h-8.020c-0.239 0-0.374-0.080-0.374-0.206l0.225-0.19 1.35-0.111c0.524-0.095 0.854-0.284 1.034-0.57l0.225-0.712v-9.492l-0.15-0.696-0.254-0.158c-0.076-0.079-0.195-0.126-0.376-0.158-0.225-0.015-0.495 0.032-0.779 0.158l-0.764 0.221-0.435-0.111c-0.075-0.111-0.045-0.189 0.060-0.237l0.644-0.285c1.469-0.458 2.653-0.933 3.478-1.423l1.019-0.586 0.45 0.032 0.18 0.396v3.48c1.124-1.93 2.024-3.117 2.639-3.512 0.374-0.237 0.734-0.428 1.004-0.506l0.525-0.048c0.33-0.032 0.705 0.079 1.124 0.364 0.57 0.348 0.87 0.87 0.899 1.534 0.030 0.554-0.12 0.982-0.45 1.313-0.3 0.269-0.6 0.349-0.869 0.269-0.255-0.047-0.45-0.158-0.584-0.316l-0.42-0.553c-0.33-0.507-0.644-0.666-1.019-0.522-0.436 0.125-0.886 0.474-1.351 1.027zM40.774 6.85c-0.555 0-1.005 0.206-1.379 0.602-0.405 0.396-0.6 0.902-0.57 1.487-0.029 0.554 0.165 1.028 0.57 1.424 0.375 0.396 0.825 0.601 1.379 0.601 0.525 0 0.989-0.206 1.363-0.601 0.375-0.396 0.585-0.87 0.585-1.424 0-0.586-0.21-1.092-0.584-1.487s-0.84-0.602-1.363-0.602zM48.719 19.475c0.547-0.762 1.22-1.395 1.994-1.88l0.029-0.017c0.72-0.444 1.439-0.728 2.189-0.871l2.774-0.173c1.004 0.047 1.933 0.253 2.773 0.648 2.024 0.949 3.297 2.69 3.777 5.22 0.495 2.563 0.076 4.732-1.244 6.487-1.124 1.487-2.608 2.436-4.482 2.847-1.963 0.459-3.792 0.316-5.441-0.395-2.144-0.918-3.448-2.737-3.868-5.395-0.375-2.515 0.12-4.652 1.499-6.47zM57.503 18.764c-0.915-1.075-2.068-1.55-3.463-1.424-1.348 0.143-2.383 0.933-3.058 2.436-0.614 1.361-0.84 3.023-0.614 4.984 0.164 1.946 0.75 3.496 1.693 4.683 1.005 1.25 2.144 1.772 3.418 1.535 1.334-0.269 2.31-1.029 2.954-2.294 0.629-1.297 0.854-2.974 0.704-5.11-0.179-2.136-0.704-3.718-1.634-4.81zM36.621 19.46v0.158l-0.33-0.222v0.079l0.030 0.143h-0.045v-0.301h0.015l0.3 0.238v-0.238h0.060l-0.029 0.143z"></path>
<path d="M37.176 19.348h-0.179v0.111h0.149v0.015h-0.15v0.111h0.18v0.032h-0.224v-0.301h0.224v0.032zM38.001 19.316h0.015l-0.15 0.301h-0.045l-0.12-0.237-0.135 0.238h-0.015c-0.075-0.143-0.134-0.238-0.15-0.301h0.075l0.090 0.237 0.136-0.237h0.045l0.105 0.237 0.12-0.237h0.030zM38.42 19.475l0.030 0.143h-0.075v-0.111l-0.15-0.191h0.075l0.12 0.158 0.12-0.158h0.060l-0.18 0.158zM38.84 19.38c0.048-0.040 0.11-0.064 0.177-0.064 0.001 0 0.002 0 0.003 0h-0c0.076 0 0.12 0.032 0.18 0.064 0.014 0.016 0.045 0.047 0.045 0.095l-0.045 0.111c-0.060 0.032-0.105 0.032-0.18 0.032-0.074 0-0.15 0-0.179-0.032l-0.076-0.111c0.001-0.048 0.031-0.079 0.076-0.095zM39.14 19.38l-0.121-0.032-0.119 0.032c-0.036 0.017-0.060 0.053-0.060 0.095v0c0 0.032 0.029 0.063 0.060 0.079l0.119 0.064c0.045 0 0.105-0.032 0.12-0.064 0.029-0.016 0.060-0.047 0.060-0.079-0.001-0.041-0.025-0.077-0.060-0.094l-0.001-0zM39.59 19.348l-0.015 0.111h0.045c0.075 0 0.12-0.032 0.12-0.064 0-0.015-0.015-0.047-0.091-0.047h-0.059zM39.664 19.316c0.076 0 0.134 0.032 0.134 0.080l-0.059 0.063-0.076 0.015 0.18 0.143h-0.076l-0.179-0.143h-0.015l0.015 0.143h-0.076v-0.301h0.15zM40.414 19.316l-0.195 0.143 0.195 0.158h-0.074l-0.166-0.143v-0.015l-0.030 0.015 0.030 0.143h-0.075v-0.301h0.075l-0.030 0.143h0.030l0.195-0.143h0.045z"></path>
</symbol>
<symbol id="icon-play-btn" viewBox="0 0 27 32">
<path d="M26.667 16l-26.667 15.396v-30.791l26.667 15.396z"></path>
</symbol>
<symbol id="icon-shopping-bag" viewBox="0 0 24 24">
<path fill-rule="evenodd" clip-rule="evenodd" d="M16.5284 6C16.5097 5.9193 16.4903 5.83842 16.47 5.75746C16.206 4.70138 15.7903 3.55383 15.1124 2.65C14.4134 1.71802 13.3928 1 11.9999 1C10.607 1 9.58642 1.71802 8.88743 2.65C8.20956 3.55383 7.79381 4.70138 7.52979 5.75747C7.50955 5.83842 7.4901 5.9193 7.47139 6H5.87104C4.29165 6 2.98275 7.22455 2.87769 8.80044L2.14435 19.8004C2.02892 21.532 3.40232 23 5.13771 23H18.8621C20.5975 23 21.9709 21.532 21.8555 19.8004L21.1221 8.80044C21.0171 7.22455 19.7082 6 18.1288 6H16.5284ZM7.47139 14.5C8.04437 14.5 8.998 10.5684 8.99995 9.99817C9.0001 9.97438 9.00038 9.9506 9.00078 9.92682C9.00166 9.87413 9.00345 9.79455 9.00712 9.69194C9.01445 9.48652 9.02924 9.18999 9.05899 8.83304C9.08009 8.57976 9.10852 8.29862 9.14668 8H14.8532C14.8913 8.29862 14.9197 8.57976 14.9409 8.83305C14.9706 9.18999 14.9854 9.48652 14.9927 9.69194C14.9964 9.79455 14.9982 9.87413 14.9991 9.92682C14.9995 9.95134 14.9998 9.97587 14.9999 10.0004C14.9999 10.0004 15.47 14.5 16.47 14.5C17.47 14.5 16.9999 9.99866 16.9999 9.99866C16.9998 9.9636 16.9994 9.92854 16.9988 9.89349C16.9977 9.829 16.9956 9.7367 16.9914 9.62056C16.9832 9.38848 16.9667 9.06001 16.9339 8.66695C16.9169 8.46202 16.8952 8.23812 16.8678 8H18.1288C18.6553 8 19.0916 8.40818 19.1266 8.93348L19.8599 19.9335C19.8984 20.5107 19.4406 21 18.8621 21H5.13771C4.55925 21 4.10145 20.5107 4.13992 19.9335L4.87326 8.93348C4.90828 8.40818 5.34458 8 5.87104 8H7.13202C7.10459 8.23812 7.08297 8.46202 7.06589 8.66696C7.03314 9.06001 7.01668 9.38848 7.00839 9.62056C7.00424 9.7367 7.00213 9.829 7.00106 9.89349C7.00048 9.92785 7.00005 9.96221 6.99994 9.99658C6.99918 10.5672 6.89972 14.5 7.47139 14.5ZM9.53346 6H14.4664C14.2352 5.15322 13.9209 4.39466 13.5124 3.85C13.0864 3.28198 12.607 3 11.9999 3C11.3928 3 10.9134 3.28198 10.4874 3.85C10.0789 4.39466 9.76466 5.15322 9.53346 6Z"/>
</svg>
</symbol>
</defs>
</svg>
